<svg width="353" height="398" viewBox="0 0 353 398" fill="none" xmlns="http://www.w3.org/2000/svg">
<path fill-rule="evenodd" clip-rule="evenodd" d="M325.367 216.222C317.811 246.309 307.798 273.597 296.095 301.837C282.611 334.376 280.604 381.797 251.499 394.482C221.933 407.367 194.613 366.985 163.691 359.542C135.54 352.765 105.682 366.524 79.3769 353.05C48.0487 337.002 12.4738 315.314 2.83505 277.146C-6.80371 238.977 24.2975 204.001 31.9464 165.228C40.2753 123.009 17.9337 62.2774 49.6974 39.5997C83.6188 15.3816 124.137 78.299 163.494 71.3098C203.486 64.2081 225.665 -3.09814 265.951 1.19695C304.413 5.29748 337.216 48.365 349.022 91.0896C360.489 132.591 335.876 174.379 325.367 216.222Z" fill="#23918A" stroke="#193A37" stroke-width="2"/>
</svg>
