<svg width="114" height="114" viewBox="0 0 114 114" fill="none" xmlns="http://www.w3.org/2000/svg">
<path fill-rule="evenodd" clip-rule="evenodd" d="M63.1754 11.7825L70.1434 17.7082C71.6619 18.9994 73.5479 19.7806 75.5346 19.9415L84.6517 20.6783C89.2963 21.0537 92.9835 24.7408 93.3589 29.3855L94.0959 38.5026C94.2567 40.4893 95.0378 42.3752 96.3289 43.8937L102.255 50.8615C105.273 54.4111 105.273 59.6257 102.255 63.1753L96.3289 70.1433C95.0378 71.6619 94.2565 73.5478 94.0957 75.5345L93.3587 84.6516C92.9835 89.2962 89.2961 92.9834 84.6517 93.3588L75.5346 94.0958C73.5479 94.2566 71.662 95.0378 70.1434 96.3288L63.1754 102.255C59.6258 105.273 54.4112 105.273 50.8616 102.255L43.8938 96.3288C42.3753 95.0377 40.4893 94.2565 38.5026 94.0956L29.3855 93.3586C24.7409 92.9834 21.0537 89.296 20.6783 84.6516L19.9413 75.5345C19.7804 73.5478 18.9992 71.6619 17.7081 70.1433L11.7825 63.1753C8.76398 59.6257 8.76398 54.4111 11.7825 50.8615L17.7083 43.8937C18.9994 42.3752 19.7807 40.4893 19.9415 38.5026L20.6783 29.3855C21.0537 24.7408 24.7409 21.0537 29.3855 20.6783L38.5026 19.9413C40.4893 19.7804 42.3753 18.9992 43.8938 17.708L50.8616 11.7825C54.4112 8.76392 59.6258 8.76392 63.1754 11.7825ZM57.0212 19.0195L50.0482 24.945C47.012 27.5272 43.2407 29.0893 39.2679 29.4104L30.1508 30.1474L29.4104 39.2678C29.0893 43.2406 27.5272 47.0119 24.9451 50.0482L19.0195 57.0162L24.9451 63.9889C27.5272 67.0251 29.0893 70.7963 29.4104 74.769L30.1474 83.8861L39.2679 84.6267C43.2407 84.9477 47.0119 86.5098 50.0482 89.0918L57.0163 95.0176L63.989 89.0918C67.0252 86.5098 70.7964 84.9478 74.7691 84.6267L83.8862 83.8897L84.6268 74.769C84.9479 70.7963 86.5099 67.0251 89.0919 63.9889L95.0177 57.0209L89.0919 50.0482C86.5098 47.0119 84.9478 43.2406 84.6268 39.2678L83.8898 30.1507L74.7691 29.4104C70.7964 29.0892 67.0252 27.5271 63.989 24.945L57.0212 19.0195ZM74.8871 40.0293L81.604 46.7462L52.2499 76.2232L34.6415 58.6147L41.3584 51.898L52.2499 62.7895L74.8871 40.0293Z" fill="#078D84"/>
</svg>
